# xmcd CD database file
# Copyright (C) 1993-1998 Ti Kan
# 
# Track frame offsets:
#     150
#     13963
#     28813
#     59593
#     78820
#     90148
#     106213
#     119828
#     145770
#     162818
#     182045
#     201293
#     216858
#     229608
#     252593
#     268593
#     280130
#     297398
#     314488
# 
# Disc length: 4481 seconds
# 
# Revision: 1
# Processed by: cddbd v1.4b41PL1 Copyright (c) Steve Scherf et al.
# Submitted via: DiscPlay 4.0.4
# 
DISCID=1a117f13
DTITLE=John Prine - John Prine Live
DYEAR=1900
DGENRE=
TTITLE0=Come Back To us Barbara Lewis Hare Krishna Beauregard
TTITLE1=Six O'Clock News
TTITLE2=The Oldest Baby In the World
TTITLE3=Angel From Montgomery
TTITLE4=Grandpa Was A Carpenter
TTITLE5=Blue Umbrella
TTITLE6=Fish and Whistle
TTITLE7=Sabu visits the Twin Cities Alone
TTITLE8=Living In The Future
TTITLE9=Illegal Smile
TTITLE10=Mexican Home
TTITLE11=Speed of The Sound of Loneliness
TTITLE12=The Accident
TTITLE13=Sam Stone
TTITLE14=Souvenirs
TTITLE15=Aw Heck
TTITLE16=Donald and Lydia
TTITLE17=That's the Way the World Goes Round
TTITLE18=Hello In There
EXTD=
EXTT0=
EXTT1=
EXTT2=
EXTT3=
EXTT4=
EXTT5=
EXTT6=
EXTT7=
EXTT8=
EXTT9=
EXTT10=
EXTT11=
EXTT12=
EXTT13=
EXTT14=
EXTT15=
EXTT16=
EXTT17=
EXTT18=
PLAYORDER=
